<svg width="224" height="32" viewBox="0 0 224 32" fill="none" xmlns="http://www.w3.org/2000/svg">
<path d="M148.752 20.7129H152.865C153.075 25.2105 156.365 27.188 163.312 27.188C169.315 27.188 172.587 25.7005 172.587 22.4804C172.587 13.9053 149.802 21.7279 150.012 9.02267C150.152 3.03755 155.262 0.5 162.927 0.5C171.292 0.5 175.79 3.51006 176.105 9.75768H172.027C171.572 5.99511 168.527 4.64758 162.805 4.64758C158.01 4.64758 154.44 5.5926 154.422 8.76016C154.335 16.9328 177.015 9.79268 177.015 22.3404C177.015 28.5181 171.905 31.3531 163.067 31.3531C153.46 31.3356 149.189 27.923 148.752 20.7129Z" fill="white"/>
<path d="M0 1.33984H5.58261L19.7054 25.4203H20.0029L34.1257 1.33984H39.7083V30.5129H35.5957V6.92245H35.2982L21.3854 30.5129H18.2179L4.39259 6.92245H4.09508V30.5129H0V1.33984Z" fill="white"/>
<path d="M60.7453 27.2405C68.953 27.2405 72.7156 23.1804 72.7156 15.9353C72.7156 8.69016 68.953 4.63008 60.7453 4.63008C52.5377 4.63008 48.7226 8.65516 48.7226 15.9353C48.7226 23.2154 52.5377 27.2405 60.7453 27.2405ZM44.3125 15.9353C44.3125 6.22261 49.8426 0.5 60.7453 0.5C71.648 0.5 77.1431 6.24011 77.1431 15.9353C77.1431 25.6305 71.613 31.3706 60.7103 31.3706C49.7726 31.3356 44.3125 25.613 44.3125 15.9353Z" fill="white"/>
<path d="M96.4097 26.3478C104.285 26.3478 106.892 22.3228 106.892 15.9351C106.892 9.54751 104.267 5.52243 96.4097 5.52243H85.927V26.3653H96.4097V26.3478ZM81.7969 1.33984H96.4097C107.207 1.33984 111.32 6.99246 111.32 15.9351C111.32 24.8603 107.207 30.5304 96.4097 30.5304H81.7969V1.33984Z" fill="white"/>
<path d="M115.625 19.4002V1.33984H119.738V19.1727C119.738 23.9678 122.765 27.2404 130.29 27.2404C137.815 27.2404 140.738 23.9678 140.738 19.1727V1.33984H144.851V19.4002C144.851 26.7153 140.3 31.3704 130.203 31.3704C120.228 31.3354 115.625 26.6803 115.625 19.4002Z" fill="white"/>
<path d="M196.441 0.662306L193.533 3.57031L221.091 31.1283L223.999 28.2203L196.441 0.662306Z" fill="white"/>
<path d="M221.085 0.664949L211.408 10.3418L214.316 13.2498L223.993 3.57295L221.085 0.664949Z" fill="white"/>
<path d="M203.218 18.5399L193.541 28.2168L196.449 31.1248L206.126 21.448L203.218 18.5399Z" fill="white"/>
</svg>
